<svg xmlns="http://www.w3.org/2000/svg" viewBox="0 0 400 300" data-imageid="order-confirmed-outline" imageName="Order Confirmed" class="illustrations_image" style="width: 215px;"><g id="_269_order_confirmed_outline" data-name="#269_order_confirmed_outline"><path d="M253.37,135.76a4.16,4.16,0,0,1-4-3L237,88.88A13.32,13.32,0,0,0,224.43,79H159.86a13.31,13.31,0,0,0-12.61,9.87l-12.33,43.85a4.16,4.16,0,0,1-8-2.25l12.33-43.85A21.65,21.65,0,0,1,159.86,70.7h64.57A21.66,21.66,0,0,1,245,86.63l12.33,43.85a4.16,4.16,0,0,1-2.88,5.12A3.94,3.94,0,0,1,253.37,135.76Z" fill="#000000"/><path d="M253.37,136.76a5.17,5.17,0,0,1-5-3.76L236.07,89.15A12.3,12.3,0,0,0,224.43,80H159.86a12.31,12.31,0,0,0-11.65,9.14L135.88,133a5.16,5.16,0,0,1-9.93-2.79l12.34-43.85A22.63,22.63,0,0,1,159.86,69.7h64.57A22.65,22.65,0,0,1,246,86.36l12.33,43.85a5.09,5.09,0,0,1-.46,3.91,5.21,5.21,0,0,1-4.5,2.64ZM159.86,78h64.57A14.31,14.31,0,0,1,238,88.61l12.33,43.85a3.2,3.2,0,0,0,3.9,2.18,3.17,3.17,0,0,0,2.18-3.89L244.07,86.9a20.63,20.63,0,0,0-19.64-15.2H159.86a20.65,20.65,0,0,0-19.65,15.2l-12.33,43.85a3.07,3.07,0,0,0,.29,2.39,3.12,3.12,0,0,0,1.89,1.5,3.16,3.16,0,0,0,3.89-2.18l12.34-43.85A14.31,14.31,0,0,1,159.86,78Z" fill="#ffd278"/><path d="M245.9,226H138.39a8.5,8.5,0,0,1-8.43-7.42l-10-78.76H264.29l-10,78.76A8.48,8.48,0,0,1,245.9,226Z" fill="#000000" class="target-color"/><path d="M245.9,227H138.38a9.5,9.5,0,0,1-9.41-8.29L119,140a1,1,0,0,1,.25-.78,1,1,0,0,1,.75-.34H264.29a1,1,0,0,1,.75.34,1,1,0,0,1,.24.78l-10,78.77A9.49,9.49,0,0,1,245.9,227ZM121.13,140.86,131,218.49a7.49,7.49,0,0,0,7.42,6.55H245.9a7.5,7.5,0,0,0,7.43-6.55l9.82-77.63Z" fill="#ffd278"/><rect x="110.54" y="129.52" width="163.21" height="17.51" rx="8.39" fill="#000000" class="target-color"/><path d="M265.35,148H118.93a9.41,9.41,0,0,1-9.39-9.4v-.71a9.41,9.41,0,0,1,9.39-9.4H265.35a9.41,9.41,0,0,1,9.4,9.4v.71A9.41,9.41,0,0,1,265.35,148ZM118.93,130.52a7.41,7.41,0,0,0-7.39,7.4v.71a7.41,7.41,0,0,0,7.39,7.4H265.35a7.41,7.41,0,0,0,7.4-7.4v-.71a7.41,7.41,0,0,0-7.4-7.4Z" fill="#ffd278"/><rect x="144.09" y="153.3" width="12.97" height="61.04" rx="6.48" fill="#ffd278"/><path d="M150.58,215.34a7.49,7.49,0,0,1-7.49-7.48V159.79a7.49,7.49,0,1,1,15,0v48.07A7.49,7.49,0,0,1,150.58,215.34Zm0-61a5.49,5.49,0,0,0-5.49,5.49v48.07a5.49,5.49,0,0,0,11,0V159.79A5.49,5.49,0,0,0,150.58,154.3Z" fill="#ffd278"/><rect x="171.8" y="153.3" width="12.97" height="61.04" rx="6.48" fill="#ffd278"/><path d="M178.29,215.34a7.49,7.49,0,0,1-7.49-7.48V159.79a7.49,7.49,0,1,1,15,0v48.07A7.49,7.49,0,0,1,178.29,215.34Zm0-61a5.49,5.49,0,0,0-5.49,5.49v48.07a5.49,5.49,0,0,0,11,0V159.79A5.49,5.49,0,0,0,178.29,154.3Z" fill="#ffd278"/><rect x="199.52" y="153.3" width="12.97" height="61.04" rx="6.48" fill="#ffd278"/><path d="M206,215.34a7.48,7.48,0,0,1-7.48-7.48V159.79a7.48,7.48,0,1,1,15,0v48.07A7.49,7.49,0,0,1,206,215.34Zm0-61a5.49,5.49,0,0,0-5.48,5.49v48.07a5.48,5.48,0,0,0,11,0V159.79A5.49,5.49,0,0,0,206,154.3Z" fill="#ffd278"/><rect x="227.23" y="153.3" width="12.97" height="61.04" rx="6.48" fill="#ffd278"/><path d="M233.71,215.34a7.48,7.48,0,0,1-7.48-7.48V159.79a7.48,7.48,0,1,1,15,0v48.07A7.48,7.48,0,0,1,233.71,215.34Zm0-61a5.49,5.49,0,0,0-5.48,5.49v48.07a5.48,5.48,0,1,0,11,0V159.79A5.49,5.49,0,0,0,233.71,154.3Z" fill="#ffd278"/><rect x="165.5" y="67.71" width="53.29" height="14.43" rx="7.21" fill="#000000" class="target-color"/><path d="M211.57,83.14H172.71a8.22,8.22,0,0,1,0-16.43h38.86a8.22,8.22,0,1,1,0,16.43ZM172.71,68.71a6.22,6.22,0,0,0,0,12.43h38.86a6.22,6.22,0,1,0,0-12.43Z" fill="#ffd278"/>
</g></svg>